<?xml version="1.0" encoding="iso-8859-1"?>
<!-- Generator: Adobe Illustrator 19.0.0, SVG Export Plug-In . SVG Version: 6.00 Build 0)  -->
<svg version="1.1" id="Layer_1" xmlns="http://www.w3.org/2000/svg" xmlns:xlink="http://www.w3.org/1999/xlink" x="0px" y="0px"
	 viewBox="0 0 512 512" style="enable-background:new 0 0 512 512;" xml:space="preserve">
<g>
	<g>
		<g>
			<path fill="#FFFFFF" d="M255.999,334.588c43.335,0,78.589-35.255,78.589-78.588s-35.255-78.588-78.589-78.588
				c-43.333,0-78.587,35.255-78.587,78.588S212.665,334.588,255.999,334.588z M255.999,193.58c34.419,0,62.421,28.002,62.421,62.42
				s-28.003,62.42-62.421,62.42c-34.418,0-62.419-28.002-62.419-62.42S221.581,193.58,255.999,193.58z"/>
			<path fill="#FFFFFF" d="M92.624,256c0,90.086,73.29,163.378,163.375,163.378c90.087,0,163.378-73.291,163.378-163.378
				S346.086,92.624,255.999,92.624c-32.724,0-64.277,9.644-91.294,27.879c-5.153-3.878-11.557-6.18-18.489-6.18
				c-16.993,0-30.818,13.825-30.818,30.818c0,6.827,2.236,13.141,6.007,18.254c-0.058,0.08-0.123,0.152-0.179,0.234
				C102.513,190.878,92.624,222.82,92.624,256z M146.215,130.49c8.077,0,14.648,6.572,14.648,14.65
				c0,8.078-6.571,14.65-14.648,14.65c-8.078,0-14.65-6.572-14.65-14.65C131.566,137.062,138.138,130.49,146.215,130.49z
				 M134.099,173.472c3.722,1.597,7.817,2.486,12.117,2.486c16.992,0,30.816-13.825,30.816-30.818c0-4.191-0.844-8.188-2.366-11.834
				c24.132-16.03,52.214-24.515,81.334-24.515c81.172,0.001,147.209,66.038,147.209,147.209
				c0,81.172-66.038,147.209-147.209,147.209S108.792,337.172,108.792,256C108.792,226.38,117.548,197.866,134.099,173.472z"/>
			<path fill="#FFFFFF" d="M500.765,180.764c-1.312-4.268-5.834-6.665-10.101-5.356c-4.268,1.311-6.667,5.833-5.356,10.101
				c6.984,22.745,10.523,46.462,10.523,70.491c0,132.244-107.588,239.832-239.833,239.832c-42.273,0-83.741-11.129-120.086-32.193
				c0.906-2.901,1.396-5.983,1.396-9.179c0-16.993-13.825-30.818-30.819-30.818c-6.231,0-12.033,1.865-16.886,5.057
				C42.244,383.071,16.168,321.803,16.168,256c0-132.244,107.588-239.832,239.83-239.832c95.53,0,181.891,56.61,220.019,144.221
				c1.782,4.094,6.545,5.968,10.639,4.187c4.094-1.782,5.968-6.544,4.187-10.639C450.147,60.425,357.966,0,255.999,0
				C187.621,0,123.334,26.629,74.982,74.982C26.628,123.334,0,187.621,0,256c0,35.656,7.193,70.165,21.378,102.568
				c13.59,31.043,32.935,58.706,57.492,82.245c-2.042,4.117-3.196,8.748-3.196,13.646c0,16.993,13.824,30.818,30.817,30.818
				c7.961,0,15.226-3.034,20.702-8.008C166.147,499.991,210.643,512,256,512c68.379,0,132.667-26.629,181.019-74.982
				S512,324.379,512,256C512,230.36,508.22,205.047,500.765,180.764z M106.491,469.108c-8.077,0-14.649-6.572-14.649-14.65
				s6.572-14.65,14.649-14.65c8.078,0,14.651,6.572,14.651,14.65S114.568,469.108,106.491,469.108z"/>
		</g>
	</g>
</g>
<g>
</g>
<g>
</g>
<g>
</g>
<g>
</g>
<g>
</g>
<g>
</g>
<g>
</g>
<g>
</g>
<g>
</g>
<g>
</g>
<g>
</g>
<g>
</g>
<g>
</g>
<g>
</g>
<g>
</g>
</svg>
